PathFileType	4	(X/Y/Z)	/Users/itak/Documents/Research/Walk-IL/dataset/trc/00451_00167.trc
DataRate	CameraRate	NumFrames	NumMarkers	Units	OrigDataRate	OrigDataStartFrame	OrigNumFrames
100.000000	100.000000	4	53	mm	100.000000	284	455
Frame#	Time	RPSI			LPSI			L3			STRN			T10			C7			CLAV			RBAK			LBAK			LSHO			LUPA			LAEL			LAOL			LWTS			LWPS			LFRA			LIFD			LHPS			LHTS			RSHO			RUPA			RAEL			RAOL			RWTS			RWPS			RFRA			RIFD			RHTS			RHPS			RBHD			LFHD			RFHD			LBHD			LHIP			RHIP			RASI			LASI			LKNE			LTHI			LANK			LTIP			LTOE			LMT1			LMT5			LHEE			RKNE			RTHI			RANK			RTIP			RTOE			RMT1			RMT5			RHEE			
		X1	Y1	Z1	X2	Y2	Z2	X3	Y3	Z3	X4	Y4	Z4	X5	Y5	Z5	X6	Y6	Z6	X7	Y7	Z7	X8	Y8	Z8	X9	Y9	Z9	X10	Y10	Z10	X11	Y11	Z11	X12	Y12	Z12	X13	Y13	Z13	X14	Y14	Z14	X15	Y15	Z15	X16	Y16	Z16	X17	Y17	Z17	X18	Y18	Z18	X19	Y19	Z19	X20	Y20	Z20	X21	Y21	Z21	X22	Y22	Z22	X23	Y23	Z23	X24	Y24	Z24	X25	Y25	Z25	X26	Y26	Z26	X27	Y27	Z27	X28	Y28	Z28	X29	Y29	Z29	X30	Y30	Z30	X31	Y31	Z31	X32	Y32	Z32	X33	Y33	Z33	X34	Y34	Z34	X35	Y35	Z35	X36	Y36	Z36	X37	Y37	Z37	X38	Y38	Z38	X39	Y39	Z39	X40	Y40	Z40	X41	Y41	Z41	X42	Y42	Z42	X43	Y43	Z43	X44	Y44	Z44	X45	Y45	Z45	X46	Y46	Z46	X47	Y47	Z47	X48	Y48	Z48	X49	Y49	Z49	X50	Y50	Z50	X51	Y51	Z51	X52	Y52	Z52	X53	Y53	Z53	

285	2.84	-425.8570556640625	924.0942993164062	165.2404479980469	-358.2416076660156	935.4838256835938	38.46426010131836	-362.41748046875	1032.434936523438	120.4916000366211	-80.53327941894531	1182.61083984375	271.2989196777344	-341.8736877441406	1156.535034179688	117.2335205078125	-243.0769653320312	1412.043579101562	176.4744415283203	-90.70015716552734	1301.5478515625	254.9987335205078	-359.6567687988281	1309.578491210938	215.7164154052734	-227.7094573974609	1364.488647460938	69.83123779296875	-95.98484039306641	1369.760375976562	54.63567352294922	-61.58586883544922	1247.319458007812	-31.9058952331543	-8.824609756469727	1051.4384765625	-54.56803131103516	-103.0450210571289	1003.886413574219	-28.49611663818359	118.1721115112305	981.4672241210938	90.91246032714844	119.5040054321289	917.5859375	52.7852897644043	51.45143127441406	997.8568115234375	-14.59239768981934	229.4256591796875	896.260986328125	175.5934143066406	175.7420349121094	879.932861328125	94.97988891601562	189.3494262695312	944.0556030273438	124.3271408081055	-270.5161437988281	1381.849243164062	351.0697631835938	-342.3418884277344	1336.285766601562	396.4462585449219	-491.8102111816406	1094.104858398438	410.1041259765625	-512.065185546875	1100.499633789062	344.9461669921875	-506.343505859375	866.1813354492188	391.2546691894531	-588.60400390625	900.1771240234375	403.4029541015625	-524.8529052734375	1044.691284179688	410.3160400390625	-599.4939575195312	737.5147094726562	380.5287475585938	-558.356201171875	778.4834594726562	399.6455078125	-624.2310791015625	819.6958618164062	403.7367858886719	-226.7003326416016	1592.9921875	266.7061462402344	-34.50645065307617	1618.678955078125	195.9502563476562	-100.23828125	1628.74609375	308.632568359375	-151.7530670166016	1581.4658203125	105.4861221313477	-188.3099517822266	819.3099365234375	-2.157599925994873	-380.3451843261719	820.7985229492188	349.7880554199219	-264.9449157714844	862.3912353515625	333.4743957519531	-138.0707092285156	852.3728637695312	110.994010925293	-188.8819732666016	392.5723571777344	54.60416412353516	-151.5038452148438	547.4019165039062	38.96826171875	-423.8930358886719	50.77985763549805	-66.96845245361328	-256.5201110839844	253.1438598632812	10.52027034759521	-268.5945129394531	41.36933898925781	112.0518417358398	-343.5200500488281	50.16395950317383	99.41299438476562	-289.5596313476562	39.85905075073242	-4.315814971923828	-496.1248168945312	65.81692504882812	-51.16268157958984	-223.0304260253906	476.1119384765625	430.8939208984375	-309.4871215820312	708.6465454101562	404.2119140625	-541.8312377929688	287.8269958496094	205.1586761474609	-320.3391723632812	392.6231384277344	373.849609375	-408.9082641601562	119.008544921875	234.4339141845703	-420.2319946289062	170.4741668701172	182.7469024658203	-494.7894592285156	178.1902313232422	257.3940124511719	-546.8736572265625	343.4005126953125	146.7942962646484	
286	2.85	-406.6338806152344	929.592529296875	176.7192535400391	-338.9232788085938	941.0740966796875	50.18426132202148	-342.2466735839844	1037.55419921875	130.3653106689453	-63.93611907958984	1189.640991210938	284.4134826660156	-321.7514038085938	1161.517944335938	126.4226226806641	-226.1571807861328	1417.906982421875	186.601318359375	-74.44354248046875	1308.52197265625	267.9783325195312	-342.2571716308594	1314.829223632812	223.9783477783203	-209.0334014892578	1370.645141601562	80.039794921875	-77.20934295654297	1377.440795898438	67.32859039306641	-40.3463249206543	1255.34375	-18.41167831420898	14.31814670562744	1060.860107421875	-38.35831832885742	-80.48577880859375	1012.036315917969	-12.864089012146	141.2366485595703	1001.062377929688	111.5313568115234	145.6174011230469	935.7099609375	76.17244720458984	75.68378448486328	1010.906188964844	4.479811668395996	254.1631774902344	924.255859375	201.9353790283203	202.3377532958984	901.9974975585938	121.2089004516602	213.0535430908203	967.9423828125	147.6677398681641	-255.9257049560547	1388.240234375	360.4247741699219	-328.7646789550781	1343.958251953125	404.6189880371094	-481.2877807617188	1104.014770507812	416.0325927734375	-499.6734008789062	1111.082885742188	350.3807678222656	-500.9393005371094	876.1290283203125	395.4955139160156	-582.4886474609375	911.8026123046875	406.88427734375	-515.2635498046875	1055.466918945312	415.3639526367188	-596.969482421875	749.8831176757812	379.3603820800781	-555.2351684570312	789.2775268554688	400.69287109375	-620.1363525390625	831.9774780273438	404.4846496582031	-209.8974914550781	1599.790283203125	278.0241088867188	-17.8053092956543	1624.535278320312	206.5653076171875	-83.11238098144531	1635.077758789062	319.41943359375	-135.5206604003906	1587.577514648438	116.5505599975586	-170.8544311523438	824.2147216796875	8.508105278015137	-359.8853149414062	828.255859375	362.213623046875	-245.12939453125	869.697265625	344.2835693359375	-118.6489639282227	856.7120361328125	121.6488342285156	-183.9414825439453	397.3601379394531	57.7076416015625	-142.1880187988281	551.2361450195312	45.44423294067383	-421.1735534667969	57.21602630615234	-66.64317321777344	-252.2587890625	258.9581909179688	12.30125522613525	-268.6682434082031	41.46607208251953	112.1387405395508	-342.5635070800781	50.58928680419922	99.90464782714844	-288.9233093261719	39.9086799621582	-3.395509243011475	-492.5597229003906	75.52623748779297	-51.03749847412109	-194.4355316162109	486.4080810546875	445.6075134277344	-286.6059265136719	718.017578125	417.6228942871094	-499.5302429199219	268.8899536132812	225.4324188232422	-286.6765441894531	394.7850952148438	390.8235778808594	-355.2685546875	111.8673400878906	263.1947631835938	-369.6205139160156	159.6772003173828	209.1694641113281	-445.4183959960938	165.5525054931641	282.8033142089844	-507.5599060058594	321.2691040039062	164.5443878173828	
287	2.86	-387.0161743164062	935.9149780273438	188.5702362060547	-319.0932006835938	947.4732055664062	62.38405227661133	-321.7439880371094	1043.365966796875	140.6840667724609	-47.1031494140625	1197.441650390625	297.6686096191406	-301.5209045410156	1167.23681640625	136.1532745361328	-209.2591094970703	1424.486572265625	197.183837890625	-58.10674285888672	1316.243286132812	281.1019287109375	-324.7555236816406	1320.817749023438	232.7079010009766	-190.610595703125	1377.516967773438	90.72932434082031	-58.79036712646484	1385.861450195312	80.16648101806641	-19.74410629272461	1264.25634765625	-5.007678031921387	36.74949645996094	1071.343505859375	-22.61211776733398	-58.45840072631836	1021.029724121094	1.786393761634827	162.3036346435547	1021.115356445312	131.7216339111328	169.9378662109375	954.7100830078125	98.96334075927734	98.75965118408203	1025.000854492188	23.08337593078613	275.6671142578125	952.4863891601562	228.0571594238281	226.6650238037109	924.814208984375	146.9631652832031	234.2794342041016	992.2197265625	170.7680206298828	-241.089599609375	1395.122192382812	370.2062072753906	-314.8727111816406	1352.025024414062	413.1978454589844	-470.0612182617188	1114.083618164062	422.2059936523438	-486.8097839355469	1121.843994140625	356.1942443847656	-493.819091796875	886.4548950195312	399.6631469726562	-574.7617797851562	923.3040771484375	410.5472717285156	-504.7137451171875	1066.317138671875	420.6329345703125	-591.53564453125	762.1329345703125	378.4739990234375	-549.603515625	800.2814331054688	401.8508605957031	-613.733642578125	843.9500732421875	405.4668579101562	-193.1518096923828	1607.232177734375	289.7502136230469	-1.226061344146729	1631.140014648438	217.4769744873047	-66.03437805175781	1642.175659179688	330.527099609375	-119.4075469970703	1594.316284179688	127.9909515380859	-152.8298950195312	830.052001953125	19.67582893371582	-339.2086791992188	836.5282592773438	374.9490966796875	-225.0865631103516	877.6195068359375	355.3656005859375	-98.80106353759766	861.9611206054688	132.8425903320312	-178.0584259033203	403.5299682617188	61.07221984863281	-132.0707244873047	556.343505859375	52.21506881713867	-417.5805053710938	64.75791931152344	-65.92380523681641	-246.9315185546875	266.1471252441406	14.30700206756592	-268.6538391113281	41.51156997680664	112.2743072509766	-341.172119140625	51.13308715820312	100.5303573608398	-287.9913330078125	39.96068954467773	-2.336142063140869	-487.6918029785156	86.76009368896484	-50.28675079345703	-167.2074432373047	496.5801391601562	459.33642578125	-263.854736328125	727.8983764648438	430.9754333496094	-455.8992919921875	248.9986724853516	246.5618743896484	-253.6863098144531	396.5506896972656	407.3940124511719	-300.8869018554688	105.3434448242188	292.8099670410156	-317.95947265625	149.0219116210938	236.4831237792969	-395.0129699707031	152.9170989990234	309.0823974609375	-466.7066345214844	297.6578979492188	183.0928192138672	
288	2.87	-366.9917297363281	942.9143676757812	200.7250366210938	-298.7374877929688	954.5381469726562	74.98019409179688	-300.9879760742188	1049.751342773438	151.4597015380859	-30.04394912719727	1205.85888671875	310.9908752441406	-281.2840270996094	1173.570556640625	146.4091339111328	-192.3938140869141	1431.6123046875	208.1593475341797	-41.70195007324219	1324.555541992188	294.2763366699219	-307.1702880859375	1327.415771484375	241.9337615966797	-172.4324035644531	1384.916625976562	101.8495254516602	-40.71028137207031	1394.801635742188	93.10980987548828	0.314283698797226	1273.8349609375	8.285358428955078	58.56219482421875	1082.652221679688	-7.373006343841553	-36.45843124389648	1030.3828125	15.61948680877686	181.4821319580078	1041.222534179688	151.4795837402344	192.6410064697266	974.2681884765625	121.0240859985352	120.783576965332	1039.870727539062	41.14632415771484	294.0134887695312	980.3739624023438	253.8939971923828	248.9233093261719	948.0066528320312	172.0566711425781	253.1333618164062	1016.452575683594	193.6319580078125	-225.9782409667969	1402.375854492188	380.3914184570312	-300.5921936035156	1360.339111328125	422.227294921875	-457.9747924804688	1124.095947265625	428.658935546875	-473.3182983398438	1132.600952148438	362.4107666015625	-485.0711669921875	896.9016723632812	403.8519897460938	-565.5327758789062	934.5475463867188	414.3753051757812	-493.1221618652344	1077.037841796875	426.1638488769531	-583.581298828125	774.0513916015625	378.166015625	-541.7293701171875	811.2767333984375	403.3396301269531	-605.2855834960938	855.520751953125	406.8015747070312	-176.4866485595703	1615.08740234375	301.8496704101562	15.22358417510986	1638.334106445312	228.7065887451172	-49.04396820068359	1649.814208984375	341.9729614257812	-103.3973236083984	1601.551391601562	139.7895660400391	-134.2019348144531	836.6605224609375	31.30423736572266	-318.4021911621094	845.367431640625	387.8818054199219	-204.8797912597656	885.9268188476562	366.6996459960938	-78.58200836181641	867.9791870117188	144.5485534667969	-170.9779205322266	410.8576354980469	64.79489135742188	-120.9560775756836	562.5516357421875	59.31233215332031	-412.9949340820312	73.31442260742188	-64.71152496337891	-240.3359832763672	274.5071411132812	16.62916564941406	-268.5373229980469	41.48203659057617	112.4249114990234	-339.2989196777344	51.79946136474609	101.2800598144531	-286.73095703125	40.0095100402832	-1.175268411636353	-481.3323669433594	99.37234497070312	-48.75995635986328	-141.4271545410156	506.2505798339844	472.1046752929688	-241.3467102050781	737.9854736328125	444.1923217773438	-410.8126831054688	228.5543060302734	268.6302490234375	-221.3836669921875	397.7530517578125	423.6162719726562	-245.9563140869141	99.73114013671875	323.0720520019531	-265.3858337402344	138.8706970214844	264.5767822265625	-343.6339721679688	140.6177062988281	336.1669311523438	-424.1672058105469	273.0654907226562	202.6493377685547	
